<svg width="80" height="80" viewBox="0 0 80 80" fill="none" xmlns="http://www.w3.org/2000/svg">
<rect width="80" height="80" rx="40" fill="#FFF7F2"/>
<g clip-path="url(#clip0_598_3513)">
<path d="M13.6382 54.7662H56.5151C56.8997 54.7662 57.2714 54.6317 57.5661 54.3864C57.978 54.0416 67.3723 45.96 67.9451 28.515H21.8962C21.3255 44.3504 12.6738 51.7935 12.5839 51.8677C12.0568 52.3131 11.8628 53.0406 12.1 53.6879C12.3355 54.3336 12.9492 54.7662 13.6382 54.7662V54.7662Z" fill="#FD6400"/>
<path d="M66.3592 18.6709H58.1557V17.0302C58.1557 16.1114 57.4338 15.3895 56.515 15.3895C55.5962 15.3895 54.8743 16.1114 54.8743 17.0302V18.6709H46.5614V17.0302C46.5614 16.1114 45.8395 15.3895 44.9207 15.3895C44.0019 15.3895 43.28 16.1114 43.28 17.0302V18.6709H35.0765V17.0302C35.0765 16.1114 34.3546 15.3895 33.4358 15.3895C32.517 15.3895 31.7951 16.1114 31.7951 17.0302V18.6709H23.5916C22.6728 18.6709 21.9509 19.3928 21.9509 20.3116V25.2337H67.9999V20.3116C67.9999 19.3928 67.278 18.6709 66.3592 18.6709Z" fill="#FD6400"/>
<path d="M59.6731 56.9021C58.7822 57.6439 57.6639 58.0477 56.5151 58.0477H21.951V62.9698C21.951 63.8767 22.6849 64.6105 23.5917 64.6105H66.3593C67.2662 64.6105 68 63.8767 68 62.9698V44.578C64.8367 52.3386 60.4226 56.2748 59.6731 56.9021Z" fill="#FD6400"/>
</g>
<defs>
<clipPath id="clip0_598_3513">
<rect width="56" height="56" fill="white" transform="translate(12 12)"/>
</clipPath>
</defs>
</svg>
