<svg width="80" height="80" viewBox="0 0 80 80" fill="none" xmlns="http://www.w3.org/2000/svg">
<rect width="80" height="80" rx="40" fill="#FFF7F2"/>
<path fill-rule="evenodd" clip-rule="evenodd" d="M43.3166 15.1873L46.651 17.6832C47.563 18.3659 48.5228 18.7152 49.6602 18.7785L53.8188 19.0099C56.3089 19.1483 58.3314 20.8453 58.9001 23.2736L59.8501 27.3289C60.1099 28.438 60.6207 29.3226 61.4513 30.1021L64.4883 32.9525C66.3068 34.6592 66.7652 37.2592 65.6401 39.485L63.7612 43.2021C63.2473 44.2187 63.0699 45.2246 63.2051 46.3557L63.6995 50.4914C63.9955 52.9677 62.6754 55.254 60.3829 56.2358L56.5541 57.8756C55.507 58.324 54.7245 58.9806 54.1011 59.9339L51.8214 63.4197C50.4564 65.5069 47.9755 66.4098 45.5883 65.6884L41.6014 64.4835C40.511 64.1539 39.4895 64.1539 38.3991 64.4835L34.4121 65.6884C32.0249 66.4098 29.5441 65.5069 28.1791 63.4197L25.8994 59.9339C25.2758 58.9806 24.4934 58.324 23.4463 57.8756L19.6173 56.2356C17.3248 55.2538 16.0048 52.9675 16.3007 50.4911L16.7951 46.3555C16.9303 45.2244 16.7529 44.2185 16.239 43.2019L14.3601 39.4847C13.2351 37.2591 13.6935 34.6591 15.5119 32.9523L18.5489 30.1019C19.3795 29.3224 19.8902 28.4378 20.15 27.3287L21.1 23.2734C21.6687 20.8452 23.6912 19.1482 26.1813 19.0096L30.3399 18.7783C31.4773 18.7151 32.4372 18.3656 33.3491 17.683L36.6835 15.1871C38.68 13.6928 41.32 13.6928 43.3166 15.1873V15.1873ZM37.873 41.4284L34.2544 37.8099C33.3165 36.872 31.7952 36.872 30.8575 37.8099C29.9196 38.7478 29.9196 40.269 30.8575 41.2069L36.1798 46.529C37.1176 47.4668 38.6389 47.4669 39.5767 46.529C42.7847 43.321 45.9563 40.0769 49.1495 36.8542C50.0807 35.9144 50.0777 34.398 49.1392 33.4647C48.2005 32.5312 46.6797 32.5339 45.7477 33.4752L37.873 41.4284ZM40 22.1122C35.0605 22.1122 30.5885 24.1144 27.3514 27.3514C24.1144 30.5886 22.1122 35.0605 22.1122 40C22.1122 44.9395 24.1144 49.4115 27.3514 52.6486C30.5885 55.8856 35.0605 57.8879 40 57.8879C44.9395 57.8879 49.4115 55.8856 52.6486 52.6486C55.8856 49.4115 57.8878 44.9395 57.8878 40C57.8878 35.0605 55.8856 30.5885 52.6486 27.3514C49.4115 24.1144 44.9395 22.1122 40 22.1122V22.1122ZM51.4112 28.5888C48.4909 25.6685 44.4564 23.8622 40 23.8622C35.5436 23.8622 31.5091 25.6685 28.5888 28.5888C25.6685 31.5091 23.8622 35.5436 23.8622 40C23.8622 44.4564 25.6685 48.4909 28.5888 51.4112C31.5091 54.3315 35.5436 56.1379 40 56.1379C44.4564 56.1379 48.4909 54.3315 51.4112 51.4113C54.3315 48.491 56.1377 44.4565 56.1377 40.0001C56.1378 35.5436 54.3315 31.5091 51.4112 28.5888V28.5888Z" fill="#FD6400"/>
</svg>
