<svg width="80" height="80" viewBox="0 0 80 80" fill="none" xmlns="http://www.w3.org/2000/svg">
<rect width="80" height="80" rx="40" fill="#FFF7F2"/>
<path fill-rule="evenodd" clip-rule="evenodd" d="M40 21.3333C29.6907 21.3333 21.3333 29.6906 21.3333 40C21.3333 50.3093 29.6907 58.6666 40 58.6666C50.3094 58.6666 58.6667 50.3093 58.6667 40V38.8333C58.6667 37.5446 59.7113 36.5 61 36.5C62.2887 36.5 63.3333 37.5446 63.3333 38.8333V40C63.3333 52.8865 52.8865 63.3333 40 63.3333C27.1133 63.3333 16.6667 52.8865 16.6667 40C16.6667 27.1133 27.1133 16.6666 40 16.6666H41.1667C42.4554 16.6666 43.5 17.7113 43.5 19C43.5 20.2886 42.4554 21.3333 41.1667 21.3333H40Z" fill="#FD6400"/>
<path fill-rule="evenodd" clip-rule="evenodd" d="M52.1697 18.582C53.3961 17.3556 55.0596 16.6666 56.7939 16.6666C58.5283 16.6666 60.1915 17.3556 61.4179 18.582C62.6443 19.8084 63.3333 21.4718 63.3333 23.2061C63.3333 24.9405 62.6443 26.6039 61.4179 27.8303L59.5907 29.6576C58.6795 30.5689 57.202 30.5689 56.2909 29.6576L50.3423 23.7092C49.4311 22.7979 49.4311 21.3206 50.3423 20.4093L52.1697 18.582ZM47.0425 27.009C46.1313 26.0978 44.6538 26.0978 43.7427 27.009L33.3329 37.4188C33.0339 37.7177 32.8218 38.0925 32.7192 38.5027L30.7364 46.4341C30.5376 47.2291 30.7706 48.0703 31.3501 48.6499C31.9297 49.2295 32.7708 49.4623 33.566 49.2635L41.4973 47.2809C41.9075 47.1782 42.2822 46.9661 42.5811 46.667L52.9911 36.2573C53.9022 35.3461 53.9022 33.8687 52.9911 32.9575L47.0425 27.009Z" fill="#FD6400"/>
</svg>
