<svg width="24" height="24" fill="none" xmlns="http://www.w3.org/2000/svg"><path d="M15.342 5.995a1.83 1.83 0 0 0-.337.15c-.103.061-1.805 1.716-3.788 3.675L6.77 14.217l-.849.835-1.954-2.03c-2.19-2.274-2.208-2.287-2.752-2.287-.384 0-.572.07-.83.304-.276.249-.384.497-.384.9 0 .272.023.375.127.572.089.16.909 1.04 2.587 2.775 1.945 2.006 2.503 2.56 2.672 2.634.29.136.75.136 1.036.005.16-.075 1.392-1.265 5.156-4.987a985.743 985.743 0 0 0 5.02-4.988c.188-.239.249-.426.249-.755 0-.52-.267-.942-.713-1.125-.206-.089-.595-.126-.792-.075ZM22.496 6.061a1.48 1.48 0 0 0-.356.155c-.08.047-2.133 2.058-4.566 4.462l-4.42 4.369-.24-.23c-.304-.304-.576-.426-.937-.422-.506 0-.848.197-1.082.614-.183.329-.193.84-.029 1.154.061.112.45.548.868.97.722.731.773.773 1.04.848.338.094.736.042 1.003-.136.094-.065 1.435-1.364 2.982-2.892 5.901-5.836 7.064-7.003 7.153-7.195.117-.253.117-.778 0-1.031a1.24 1.24 0 0 0-1.416-.666Z" fill="#FD6400"/></svg>