<svg width="21" height="20" viewBox="0 0 21 20" fill="none" xmlns="http://www.w3.org/2000/svg">
<path d="M9.08237 0.0595703C7.56284 0.24707 6.09018 0.793945 4.82065 1.6377C2.8519 2.94629 1.4183 4.86035 0.74643 7.08691C0.586273 7.60254 0.430023 8.3877 0.371429 8.91504C0.320648 9.40332 0.320648 10.5986 0.371429 11.0869C0.793305 15.0479 3.59409 18.4307 7.41831 19.5869C7.93393 19.7471 8.71909 19.9033 9.24643 19.9619C9.73471 20.0127 10.93 20.0127 11.4183 19.9619C13.7308 19.7158 15.8753 18.665 17.5238 16.9697C18.6527 15.8018 19.4535 14.4502 19.9183 12.915C20.2074 11.9658 20.3324 11.0869 20.3324 10.001C20.3324 9.18457 20.2933 8.73535 20.1527 8.02832C19.4457 4.43457 16.766 1.48145 13.2464 0.415039C12.7308 0.254883 11.9457 0.0986328 11.4183 0.0400391C10.9066 -0.0146484 9.58628 -0.00292969 9.08237 0.0595703ZM14.641 5.67676C14.2386 6.0127 10.3949 9.03223 10.3519 9.04785C10.3128 9.06348 8.89096 7.99707 5.84409 5.65723C5.75424 5.59082 5.88315 5.58691 10.2503 5.58691H14.7542L14.641 5.67676ZM15.2933 10.7041V14.415H10.2542H5.21518V10.7588V7.10254L5.34409 7.19629C5.41049 7.24707 6.46127 8.04395 7.67612 8.96582C8.88706 9.88379 9.93784 10.6611 10.0082 10.6885C10.2269 10.7822 10.4886 10.7588 10.6878 10.6299C10.7816 10.5674 11.8519 9.72754 13.0667 8.75879C14.2816 7.79004 15.2777 6.99707 15.2855 6.99316C15.2894 6.99316 15.2933 8.66113 15.2933 10.7041Z" fill="#BDBEC4"/>
</svg>
