<svg width="16" height="16" viewBox="0 0 16 16" fill="none" xmlns="http://www.w3.org/2000/svg">
<path d="M0.946875 2.4375C0.528125 2.5875 0.20625 2.9125 0.059375 3.3375C0.003125 3.50313 0 3.65938 0 8C0 12.3656 0.003125 12.4937 0.059375 12.6656C0.20625 13.0938 0.53125 13.4188 0.9625 13.5656C1.13125 13.6219 1.32187 13.625 8 13.625C14.6781 13.625 14.8688 13.6219 15.0375 13.5656C15.4688 13.4188 15.7937 13.0938 15.9406 12.6656C15.9969 12.4937 16 12.3656 16 8C16 3.63437 15.9969 3.50625 15.9406 3.33437C15.7937 2.90625 15.4688 2.58125 15.0375 2.43437C14.8688 2.37813 14.6813 2.375 7.9875 2.37813C1.36563 2.37813 1.10312 2.38125 0.946875 2.4375ZM11.6031 6.0625C8.98438 8.66875 8.83438 8.8125 8.61875 8.91875C8.35313 9.05 8.0875 9.09375 7.80625 9.05625C7.6875 9.04063 7.51875 8.9875 7.38125 8.91875C7.16563 8.8125 7.01562 8.66875 4.39687 6.0625L1.64062 3.31563H8H14.3594L11.6031 6.0625ZM3.15625 6.2L4.95312 8L2.94375 10.0094L0.9375 12.0156V8.01875V4.025L1.15 4.2125C1.26562 4.31875 2.16875 5.2125 3.15625 6.2ZM15.0625 8.02187V12.0156L13.0563 10.0062L11.0469 8L13.0344 6.01562C14.1281 4.925 15.0312 4.03125 15.0406 4.03125C15.0531 4.03125 15.0625 5.82812 15.0625 8.02187ZM5.96875 9.01875C6.74062 9.79688 7.21875 10.0375 8 10.0375C8.42188 10.0375 8.71875 9.96875 9.05625 9.8C9.33438 9.65937 9.55 9.4875 9.99063 9.05312L10.3406 8.70937L10.6469 8.99375C10.8156 9.15 11.7188 10.0438 12.6562 10.9813L14.3594 12.6875H8H1.64062L3.62812 10.7031C4.72188 9.6125 5.63125 8.71875 5.64687 8.71875C5.65938 8.71875 5.80625 8.85313 5.96875 9.01875Z" fill="#BBBBBB"/>
</svg>
