<svg width="32" height="32" viewBox="0 0 32 32" fill="none" xmlns="http://www.w3.org/2000/svg">
<rect width="32" height="32" rx="16" fill="white"/>
<g clip-path="url(#clip0_598_3598)">
<path d="M15.9983 7.10938C18.4134 7.10938 18.7147 7.11826 19.6623 7.16271C20.6089 7.20715 21.2534 7.3556 21.8205 7.57604C22.4072 7.80182 22.9014 8.1076 23.3956 8.60093C23.8476 9.04528 24.1973 9.58279 24.4205 10.176C24.64 10.7423 24.7894 11.3876 24.8338 12.3343C24.8756 13.2818 24.8872 13.5832 24.8872 15.9983C24.8872 18.4134 24.8783 18.7147 24.8338 19.6623C24.7894 20.6089 24.64 21.2534 24.4205 21.8205C24.198 22.4141 23.8482 22.9517 23.3956 23.3956C22.9511 23.8474 22.4137 24.1972 21.8205 24.4205C21.2543 24.64 20.6089 24.7894 19.6623 24.8338C18.7147 24.8756 18.4134 24.8872 15.9983 24.8872C13.5832 24.8872 13.2818 24.8783 12.3343 24.8338C11.3876 24.7894 10.7432 24.64 10.176 24.4205C9.58255 24.1978 9.04496 23.848 8.60093 23.3956C8.14885 22.9513 7.79909 22.4138 7.57604 21.8205C7.3556 21.2543 7.20715 20.6089 7.16271 19.6623C7.12093 18.7147 7.10938 18.4134 7.10938 15.9983C7.10938 13.5832 7.11826 13.2818 7.16271 12.3343C7.20715 11.3867 7.3556 10.7432 7.57604 10.176C7.79847 9.58242 8.14831 9.04477 8.60093 8.60093C9.04508 8.14869 9.58264 7.79891 10.176 7.57604C10.7432 7.3556 11.3867 7.20715 12.3343 7.16271C13.2818 7.12093 13.5832 7.10938 15.9983 7.10938ZM15.9983 11.5538C14.8195 11.5538 13.6891 12.0221 12.8556 12.8556C12.0221 13.6891 11.5538 14.8195 11.5538 15.9983C11.5538 17.177 12.0221 18.3075 12.8556 19.141C13.6891 19.9745 14.8195 20.4427 15.9983 20.4427C17.177 20.4427 18.3075 19.9745 19.141 19.141C19.9745 18.3075 20.4427 17.177 20.4427 15.9983C20.4427 14.8195 19.9745 13.6891 19.141 12.8556C18.3075 12.0221 17.177 11.5538 15.9983 11.5538ZM21.776 11.3316C21.776 11.0369 21.659 10.7543 21.4506 10.5459C21.2422 10.3375 20.9596 10.2205 20.6649 10.2205C20.3702 10.2205 20.0876 10.3375 19.8793 10.5459C19.6709 10.7543 19.5538 11.0369 19.5538 11.3316C19.5538 11.6263 19.6709 11.9089 19.8793 12.1173C20.0876 12.3256 20.3702 12.4427 20.6649 12.4427C20.9596 12.4427 21.2422 12.3256 21.4506 12.1173C21.659 11.9089 21.776 11.6263 21.776 11.3316ZM15.9983 13.3316C16.7055 13.3316 17.3838 13.6125 17.8839 14.1126C18.384 14.6127 18.6649 15.291 18.6649 15.9983C18.6649 16.7055 18.384 17.3838 17.8839 17.8839C17.3838 18.384 16.7055 18.6649 15.9983 18.6649C15.291 18.6649 14.6127 18.384 14.1126 17.8839C13.6125 17.3838 13.3316 16.7055 13.3316 15.9983C13.3316 15.291 13.6125 14.6127 14.1126 14.1126C14.6127 13.6125 15.291 13.3316 15.9983 13.3316Z" fill="#003D56"/>
</g>
<defs>
<clipPath id="clip0_598_3598">
<rect width="21.3333" height="21.3333" fill="white" transform="translate(5.33203 5.33398)"/>
</clipPath>
</defs>
</svg>
