<svg width="32" height="32" viewBox="0 0 32 32" fill="none" xmlns="http://www.w3.org/2000/svg">
<rect width="32" height="32" rx="16" fill="white"/>
<g clip-path="url(#clip0_598_3605)">
<path d="M11.5009 9.77867C11.5006 10.2502 11.3131 10.7023 10.9795 11.0355C10.646 11.3687 10.1937 11.5558 9.7222 11.5556C9.25071 11.5553 8.79861 11.3678 8.46538 11.0342C8.13215 10.7007 7.94508 10.2484 7.94531 9.77689C7.94555 9.30539 8.13308 8.8533 8.46664 8.52007C8.8002 8.18684 9.25248 7.99976 9.72398 8C10.1955 8.00024 10.6476 8.18776 10.9808 8.52133C11.314 8.85489 11.5011 9.30717 11.5009 9.77867ZM11.5542 12.872H7.99865V24.0009H11.5542V12.872ZM17.172 12.872H13.6342V24.0009H17.1364V18.1609C17.1364 14.9076 21.3764 14.6053 21.3764 18.1609V24.0009H24.8875V16.952C24.8875 11.4676 18.612 11.672 17.1364 14.3653L17.172 12.872Z" fill="#003D56"/>
</g>
<defs>
<clipPath id="clip0_598_3605">
<rect width="21.3333" height="21.3333" fill="white" transform="translate(5.33203 5.33398)"/>
</clipPath>
</defs>
</svg>
