<svg width="21" height="20" viewBox="0 0 21 20" fill="none" xmlns="http://www.w3.org/2000/svg">
<g clip-path="url(#clip0_598_3571)">
<path d="M9.06295 0.0585556C7.25826 0.292931 5.60591 0.984337 4.1606 2.10152C3.70357 2.45699 2.92623 3.22262 2.54732 3.69137C1.46919 5.02731 0.754351 6.60543 0.449663 8.32418C0.340288 8.93356 0.297319 10.3984 0.367632 11.0664C0.687944 14.0586 2.34029 16.75 4.88326 18.4101C6.14888 19.2343 7.57467 19.7539 9.12154 19.9453C9.71529 20.0195 10.9653 20.0156 11.5825 19.9414C16.1137 19.3789 19.7114 15.7812 20.2739 11.25C20.352 10.6171 20.352 9.38277 20.2739 8.74996C19.9145 5.84371 18.2856 3.23824 15.8208 1.61715C14.5356 0.773399 13.1059 0.249962 11.5825 0.0585556C10.9887 -0.0117569 9.62545 -0.0117569 9.06295 0.0585556ZM11.2895 3.61324C13.5122 4.07809 15.1411 5.95699 15.2426 8.17184C15.2739 8.87496 15.1801 9.31637 14.809 10.1796C14.184 11.625 12.7778 13.6562 10.9106 15.8086C10.6098 16.1601 10.3481 16.4453 10.3325 16.4453C10.3169 16.4453 10.0551 16.1601 9.75435 15.8125C7.42623 13.1211 5.92623 10.789 5.50435 9.19918C5.38716 8.76559 5.4067 7.79684 5.5356 7.30465C5.79341 6.3359 6.19576 5.62887 6.86763 4.95699C7.61763 4.20699 8.51217 3.75387 9.60982 3.57027C10.0122 3.50387 10.8715 3.5234 11.2895 3.61324Z" fill="#BDBEC4"/>
<path d="M10.0581 6.48438C9.13622 6.61328 8.45653 7.38672 8.44872 8.32031C8.44091 9.01172 8.75341 9.59766 9.31981 9.96484C9.89794 10.3359 10.7651 10.3359 11.3433 9.96484C11.9018 9.60547 12.2222 9.01562 12.2143 8.33984C12.2065 7.1875 11.2026 6.32812 10.0581 6.48438Z" fill="#BDBEC4"/>
</g>
<defs>
<clipPath id="clip0_598_3571">
<rect width="20" height="20" fill="white" transform="translate(0.333344)"/>
</clipPath>
</defs>
</svg>
