<svg width="32" height="32" viewBox="0 0 32 32" fill="none" xmlns="http://www.w3.org/2000/svg">
<rect width="32" height="32" rx="16" fill="white"/>
<g clip-path="url(#clip0_598_3591)">
<path d="M25.0323 10.3582C24.3537 10.6584 23.634 10.8555 22.8972 10.9431C23.6738 10.4786 24.2551 9.74757 24.5327 8.88622C23.8038 9.32 23.0047 9.624 22.1718 9.78844C21.6124 9.18985 20.8708 8.79285 20.0625 8.65918C19.2541 8.52551 18.4242 8.66266 17.7019 9.04929C16.9795 9.43592 16.4051 10.0504 16.0679 10.7971C15.7308 11.5439 15.6498 12.3811 15.8376 13.1787C14.3595 13.1046 12.9135 12.7205 11.5934 12.0513C10.2734 11.382 9.10884 10.4427 8.1754 9.29422C7.84499 9.86173 7.67136 10.5069 7.67228 11.1636C7.67228 12.4524 8.32828 13.5911 9.32562 14.2578C8.7354 14.2392 8.15818 14.0798 7.64206 13.7929V13.8391C7.64224 14.6975 7.93928 15.5294 8.48282 16.1938C9.02635 16.8582 9.78294 17.3142 10.6243 17.4844C10.0764 17.6329 9.50189 17.6548 8.94428 17.5484C9.1815 18.2873 9.64385 18.9335 10.2666 19.3965C10.8893 19.8596 11.6413 20.1163 12.4172 20.1307C11.646 20.7363 10.7631 21.184 9.81885 21.4482C8.87458 21.7123 7.88751 21.7878 6.91406 21.6702C8.61335 22.7631 10.5915 23.3432 12.6118 23.3413C19.4501 23.3413 23.1896 17.6764 23.1896 12.7636C23.1896 12.6036 23.1852 12.4418 23.1781 12.2836C23.9059 11.7575 24.5342 11.1058 25.0332 10.3591L25.0323 10.3582Z" fill="#003D56"/>
</g>
<defs>
<clipPath id="clip0_598_3591">
<rect width="21.3333" height="21.3333" fill="white" transform="translate(5.33203 5.33398)"/>
</clipPath>
</defs>
</svg>
