<svg width="7" height="12" viewBox="0 0 7 12" fill="none" xmlns="http://www.w3.org/2000/svg">
<path d="M0.564062 11.275C0.654686 11.425 0.798437 11.5 0.995312 11.5C1.08594 11.5 1.19844 11.4812 1.24531 11.4563C1.34844 11.4 6.41719 6.325 6.46719 6.22813C6.51094 6.14062 6.51094 5.85938 6.46719 5.77187C6.41719 5.675 1.34844 0.599999 1.24531 0.54375C1.19844 0.51875 1.08594 0.5 0.995312 0.5C0.692186 0.5 0.501562 0.690625 0.501562 0.99375C0.501562 1.08437 0.517187 1.19063 0.535936 1.22812C0.554687 1.26562 1.62656 2.35625 2.92031 3.64687L5.26719 6L2.92031 8.35C1.62656 9.64375 0.554687 10.7344 0.535936 10.7719C0.479687 10.8844 0.495312 11.1594 0.564062 11.275Z" fill="#191919" stroke="#191919"/>
</svg>
