<svg width="507" height="624" viewBox="0 0 507 624" fill="none" xmlns="http://www.w3.org/2000/svg">
<path opacity="0.0526316" d="M99.343 373.858C124.104 408.293 204.334 466.737 327.168 425.031C480.711 372.898 542.746 227.41 680.35 154.204C781.912 100.172 1053.4 21.5849 1206.52 118.01" stroke="url(#paint0_linear_598_1089)" stroke-opacity="0.5" stroke-width="4.45149"/>
<path opacity="0.105263" d="M75.7086 302.268C96.7343 339.103 170.416 405.613 296.937 376.975C455.088 341.177 531.991 202.971 676.493 144.549C783.146 101.429 1061.36 51.6512 1203.56 163.553" stroke="url(#paint1_linear_598_1089)" stroke-opacity="0.5" stroke-width="4.45149"/>
<path opacity="0.157895" d="M58.2432 229.85C75.3035 268.681 141.629 342.529 270.45 327.273C431.477 308.202 522.405 178.792 672.222 135.794C782.799 104.059 1064.7 83.6355 1194.42 209.788" stroke="url(#paint2_linear_598_1089)" stroke-opacity="0.5" stroke-width="4.45149"/>
<path opacity="0.210526" d="M46.9987 157.256C59.9065 197.658 118.15 278.034 247.86 276.327C409.998 274.193 513.955 154.996 667.446 127.894C780.734 107.89 1063.22 117.046 1179.05 256.067" stroke="url(#paint3_linear_598_1089)" stroke-opacity="0.5" stroke-width="4.45149"/>
<path opacity="0.263158" d="M41.9691 85.1131C50.5831 126.642 100.106 212.666 229.284 224.527C390.757 239.353 506.604 131.675 662.087 120.766C776.845 112.714 1056.83 151.347 1157.49 301.714" stroke="url(#paint4_linear_598_1089)" stroke-opacity="0.5" stroke-width="4.45149"/>
<path opacity="0.315789" d="M43.0432 14.1024C47.2691 56.3046 87.5285 147.034 214.759 172.332C373.798 203.955 500.265 108.977 656.037 114.38C771.008 118.367 1045.42 186.055 1129.81 346.12" stroke="url(#paint5_linear_598_1089)" stroke-opacity="0.5" stroke-width="4.45149"/>
<path opacity="0.368421" d="M50.0959 -55.1546C49.8873 -12.7418 80.4424 81.6984 204.332 120.158C359.193 168.231 494.896 86.9927 649.25 108.649C763.174 124.632 1029.01 220.633 1096.2 388.642" stroke="url(#paint6_linear_598_1089)" stroke-opacity="0.5" stroke-width="4.45149"/>
<path opacity="0.421053" d="M62.907 -122.056C58.2662 -79.8974 78.7823 17.2194 197.973 68.4178C346.961 132.416 490.412 65.8068 641.657 103.478C753.286 131.283 1007.63 254.545 1056.89 428.658" stroke="url(#paint7_linear_598_1089)" stroke-opacity="0.5" stroke-width="4.45149"/>
<path opacity="0.473684" d="M81.1782 -186.001C72.1561 -144.559 82.4082 -45.8292 195.594 17.5475C337.077 96.7685 486.705 45.5192 633.183 98.7937C741.294 138.114 981.359 287.287 1012.16 465.596" stroke="url(#paint8_linear_598_1089)" stroke-opacity="0.5" stroke-width="4.45149"/>
<path opacity="0.526316" d="M104.593 -246.424C91.2888 -206.152 91.1648 -106.892 197.106 -32.0312C329.532 61.5446 483.698 26.2165 623.805 94.5103C727.214 144.916 950.371 318.365 962.36 498.916" stroke="url(#paint9_linear_598_1089)" stroke-opacity="0.5" stroke-width="4.45149"/>
<path opacity="0.578947" d="M132.739 -302.837C115.298 -264.176 104.799 -165.473 202.335 -79.9483C324.254 26.9574 481.268 7.93739 613.469 90.5023C711.043 151.441 914.847 347.267 907.898 528.082" stroke="url(#paint10_linear_598_1089)" stroke-opacity="0.5" stroke-width="4.45149"/>
<path opacity="0.631579" d="M165.189 -354.733C143.802 -318.106 123.043 -221.041 211.105 -125.79C321.182 -6.7258 479.324 -9.22918 602.17 86.7022C692.84 157.507 875.058 373.563 849.247 552.661" stroke="url(#paint11_linear_598_1089)" stroke-opacity="0.5" stroke-width="4.45149"/>
<path opacity="0.684211" d="M201.436 -401.708C176.338 -367.518 145.547 -273.154 223.17 -169.22C320.198 -39.3016 477.735 -25.261 589.881 82.9857C672.653 162.88 831.289 396.799 786.898 572.218" stroke="url(#paint12_linear_598_1089)" stroke-opacity="0.5" stroke-width="4.45149"/>
<path opacity="0.736842" d="M240.969 -443.395C212.434 -412.015 171.948 -321.387 238.281 -209.908C321.198 -70.5599 476.405 -40.1291 576.621 79.2471C650.588 167.356 783.904 416.575 721.42 586.393" stroke="url(#paint13_linear_598_1089)" stroke-opacity="0.5" stroke-width="4.45149"/>
<path opacity="0.789474" d="M283.169 -479.477C251.511 -451.252 201.774 -365.352 256.091 -247.55C323.988 -100.298 475.163 -53.8105 562.352 75.3871C626.704 170.745 733.239 432.534 653.347 594.891" stroke="url(#paint14_linear_598_1089)" stroke-opacity="0.5" stroke-width="4.45149"/>
<path opacity="0.842105" d="M327.463 -509.705C293.028 -484.944 234.584 -404.714 276.29 -281.88C328.423 -128.337 473.911 -66.3017 547.117 71.302C601.149 172.864 679.736 444.356 583.311 597.472" stroke="url(#paint15_linear_598_1089)" stroke-opacity="0.5" stroke-width="4.45149"/>
<path opacity="0.894737" d="M373.241 -533.868C336.406 -512.843 269.896 -439.161 298.534 -312.64C334.332 -154.489 472.538 -77.5863 530.961 66.9158C574.081 173.569 623.858 451.788 511.956 593.986" stroke="url(#paint16_linear_598_1089)" stroke-opacity="0.5" stroke-width="4.45149"/>
<path opacity="0.947368" d="M419.844 -551.878C381.013 -534.818 307.165 -468.492 322.421 -339.671C341.491 -178.645 470.902 -87.7166 513.9 62.1006C545.635 172.677 566.058 454.575 439.905 584.297" stroke="url(#paint17_linear_598_1089)" stroke-opacity="0.5" stroke-width="4.45149"/>
<path d="M466.616 -563.668C426.215 -550.76 345.839 -492.517 347.546 -362.807C349.68 -200.669 468.877 -96.7117 495.979 56.7792C515.982 170.067 506.827 452.556 367.805 568.38" stroke="url(#paint18_linear_598_1089)" stroke-opacity="0.5" stroke-width="4.45149"/>
<defs>
<linearGradient id="paint0_linear_598_1089" x1="108.306" y1="403.567" x2="1193.86" y2="76.0649" gradientUnits="userSpaceOnUse">
<stop offset="0.411458" stop-color="#FD6400" stop-opacity="0.15"/>
<stop offset="1" stop-color="white" stop-opacity="0"/>
</linearGradient>
<linearGradient id="paint1_linear_598_1089" x1="81.517" y1="332.751" x2="1195.36" y2="120.515" gradientUnits="userSpaceOnUse">
<stop offset="0.411458" stop-color="#FD6400" stop-opacity="0.15"/>
<stop offset="1" stop-color="white" stop-opacity="0"/>
</linearGradient>
<linearGradient id="paint2_linear_598_1089" x1="60.8335" y1="260.774" x2="1190.76" y2="166.128" gradientUnits="userSpaceOnUse">
<stop offset="0.411458" stop-color="#FD6400" stop-opacity="0.15"/>
<stop offset="1" stop-color="white" stop-opacity="0"/>
</linearGradient>
<linearGradient id="paint3_linear_598_1089" x1="46.3423" y1="188.281" x2="1179.97" y2="212.264" gradientUnits="userSpaceOnUse">
<stop offset="0.411458" stop-color="#FD6400" stop-opacity="0.15"/>
<stop offset="1" stop-color="white" stop-opacity="0"/>
</linearGradient>
<linearGradient id="paint4_linear_598_1089" x1="38.0733" y1="115.899" x2="1162.99" y2="258.248" gradientUnits="userSpaceOnUse">
<stop offset="0.411458" stop-color="#FD6400" stop-opacity="0.15"/>
<stop offset="1" stop-color="white" stop-opacity="0"/>
</linearGradient>
<linearGradient id="paint5_linear_598_1089" x1="35.9508" y1="44.3126" x2="1139.82" y2="303.467" gradientUnits="userSpaceOnUse">
<stop offset="0.411458" stop-color="#FD6400" stop-opacity="0.15"/>
<stop offset="1" stop-color="white" stop-opacity="0"/>
</linearGradient>
<linearGradient id="paint6_linear_598_1089" x1="39.8845" y1="-25.8511" x2="1110.62" y2="347.269" gradientUnits="userSpaceOnUse">
<stop offset="0.411458" stop-color="#FD6400" stop-opacity="0.15"/>
<stop offset="1" stop-color="white" stop-opacity="0"/>
</linearGradient>
<linearGradient id="paint7_linear_598_1089" x1="49.6885" y1="-93.9805" x2="1075.56" y2="389.018" gradientUnits="userSpaceOnUse">
<stop offset="0.411458" stop-color="#FD6400" stop-opacity="0.15"/>
<stop offset="1" stop-color="white" stop-opacity="0"/>
</linearGradient>
<linearGradient id="paint8_linear_598_1089" x1="65.0974" y1="-159.461" x2="1034.86" y2="428.125" gradientUnits="userSpaceOnUse">
<stop offset="0.411458" stop-color="#FD6400" stop-opacity="0.15"/>
<stop offset="1" stop-color="white" stop-opacity="0"/>
</linearGradient>
<linearGradient id="paint9_linear_598_1089" x1="85.8266" y1="-221.711" x2="988.857" y2="464.024" gradientUnits="userSpaceOnUse">
<stop offset="0.411458" stop-color="#FD6400" stop-opacity="0.15"/>
<stop offset="1" stop-color="white" stop-opacity="0"/>
</linearGradient>
<linearGradient id="paint10_linear_598_1089" x1="111.492" y1="-280.221" x2="937.896" y2="496.15" gradientUnits="userSpaceOnUse">
<stop offset="0.411458" stop-color="#FD6400" stop-opacity="0.15"/>
<stop offset="1" stop-color="white" stop-opacity="0"/>
</linearGradient>
<linearGradient id="paint11_linear_598_1089" x1="141.694" y1="-334.461" x2="882.419" y2="524.04" gradientUnits="userSpaceOnUse">
<stop offset="0.411458" stop-color="#FD6400" stop-opacity="0.15"/>
<stop offset="1" stop-color="white" stop-opacity="0"/>
</linearGradient>
<linearGradient id="paint12_linear_598_1089" x1="175.951" y1="-384.003" x2="822.88" y2="547.221" gradientUnits="userSpaceOnUse">
<stop offset="0.411458" stop-color="#FD6400" stop-opacity="0.15"/>
<stop offset="1" stop-color="white" stop-opacity="0"/>
</linearGradient>
<linearGradient id="paint13_linear_598_1089" x1="213.772" y1="-428.451" x2="759.818" y2="565.294" gradientUnits="userSpaceOnUse">
<stop offset="0.411458" stop-color="#FD6400" stop-opacity="0.15"/>
<stop offset="1" stop-color="white" stop-opacity="0"/>
</linearGradient>
<linearGradient id="paint14_linear_598_1089" x1="254.56" y1="-467.457" x2="693.74" y2="577.921" gradientUnits="userSpaceOnUse">
<stop offset="0.411458" stop-color="#FD6400" stop-opacity="0.15"/>
<stop offset="1" stop-color="white" stop-opacity="0"/>
</linearGradient>
<linearGradient id="paint15_linear_598_1089" x1="297.754" y1="-500.742" x2="625.256" y2="584.817" gradientUnits="userSpaceOnUse">
<stop offset="0.411458" stop-color="#FD6400" stop-opacity="0.15"/>
<stop offset="1" stop-color="white" stop-opacity="0"/>
</linearGradient>
<linearGradient id="paint16_linear_598_1089" x1="342.758" y1="-528.06" x2="554.994" y2="585.785" gradientUnits="userSpaceOnUse">
<stop offset="0.411458" stop-color="#FD6400" stop-opacity="0.15"/>
<stop offset="1" stop-color="white" stop-opacity="0"/>
</linearGradient>
<linearGradient id="paint17_linear_598_1089" x1="388.92" y1="-549.288" x2="483.565" y2="580.64" gradientUnits="userSpaceOnUse">
<stop offset="0.411458" stop-color="#FD6400" stop-opacity="0.15"/>
<stop offset="1" stop-color="white" stop-opacity="0"/>
</linearGradient>
<linearGradient id="paint18_linear_598_1089" x1="435.591" y1="-564.324" x2="411.608" y2="569.307" gradientUnits="userSpaceOnUse">
<stop offset="0.411458" stop-color="#FD6400" stop-opacity="0.15"/>
<stop offset="1" stop-color="white" stop-opacity="0"/>
</linearGradient>
</defs>
</svg>
